<mxfile host="app.diagrams.net" agent="Mozilla/5.0 (Macintosh; Intel Mac OS X 10_15_7) AppleWebKit/537.36 (KHTML, like Gecko) Chrome/141.0.0.0 Safari/537.36" version="26.0.4">
  <diagram name="Page-1" id="_OaOxUmhx98JHAGpv21M">
    <mxGraphModel dx="901" dy="615" grid="1" gridSize="10" guides="1" tooltips="1" connect="1" arrows="1" fold="1" page="1" pageScale="1" pageWidth="1169" pageHeight="827" math="0" shadow="0">
      <root>
        <mxCell id="0" />
        <mxCell id="1" parent="0" />
        <mxCell id="pB-FUH-wrkIsmEnLfByb-1" value="" style="pointerEvents=1;verticalLabelPosition=bottom;shadow=0;dashed=0;align=center;html=1;verticalAlign=top;shape=mxgraph.electrical.resistors.resistor_1;" vertex="1" parent="1">
          <mxGeometry x="180" y="110" width="100" height="20" as="geometry" />
        </mxCell>
        <mxCell id="pB-FUH-wrkIsmEnLfByb-2" value="" style="pointerEvents=1;verticalLabelPosition=bottom;shadow=0;dashed=0;align=center;html=1;verticalAlign=top;shape=mxgraph.electrical.resistors.resistor_1;" vertex="1" parent="1">
          <mxGeometry x="180" y="210" width="100" height="20" as="geometry" />
        </mxCell>
        <mxCell id="pB-FUH-wrkIsmEnLfByb-3" value="" style="pointerEvents=1;verticalLabelPosition=bottom;shadow=0;dashed=0;align=center;html=1;verticalAlign=top;shape=mxgraph.electrical.resistors.variable_resistor_1;rotation=89;" vertex="1" parent="1">
          <mxGeometry x="230" y="140" width="100" height="60" as="geometry" />
        </mxCell>
        <mxCell id="pB-FUH-wrkIsmEnLfByb-4" value="&lt;span style=&quot;font-size: 18px;&quot;&gt;&lt;b&gt;IN&lt;/b&gt; (V_SUP_HI)&lt;/span&gt;" style="text;html=1;align=center;verticalAlign=middle;whiteSpace=wrap;rounded=0;" vertex="1" parent="1">
          <mxGeometry x="100" y="105" width="60" height="30" as="geometry" />
        </mxCell>
        <mxCell id="pB-FUH-wrkIsmEnLfByb-5" value="&lt;font style=&quot;font-size: 18px;&quot;&gt;OUT&lt;/font&gt;" style="text;html=1;align=center;verticalAlign=middle;whiteSpace=wrap;rounded=0;" vertex="1" parent="1">
          <mxGeometry x="310" y="170" width="60" height="30" as="geometry" />
        </mxCell>
        <mxCell id="pB-FUH-wrkIsmEnLfByb-6" value="&lt;font style=&quot;font-size: 15px;&quot;&gt;R_top&lt;/font&gt;" style="text;html=1;align=center;verticalAlign=middle;whiteSpace=wrap;rounded=0;" vertex="1" parent="1">
          <mxGeometry x="190" y="83" width="60" height="30" as="geometry" />
        </mxCell>
        <mxCell id="pB-FUH-wrkIsmEnLfByb-7" value="&lt;font style=&quot;font-size: 15px;&quot;&gt;R_bottom&lt;/font&gt;" style="text;html=1;align=center;verticalAlign=middle;whiteSpace=wrap;rounded=0;" vertex="1" parent="1">
          <mxGeometry x="201" y="230" width="60" height="30" as="geometry" />
        </mxCell>
        <mxCell id="pB-FUH-wrkIsmEnLfByb-8" value="&lt;span style=&quot;font-size: 18px;&quot;&gt;V_SUP_LOW&lt;/span&gt;" style="text;html=1;align=center;verticalAlign=middle;whiteSpace=wrap;rounded=0;" vertex="1" parent="1">
          <mxGeometry x="90" y="205" width="60" height="30" as="geometry" />
        </mxCell>
      </root>
    </mxGraphModel>
  </diagram>
</mxfile>
